<svg width="135" height="23" viewBox="0 0 135 23" fill="none" xmlns="http://www.w3.org/2000/svg">
<path d="M11.1978 0.519043L15.0088 6.45239L21.8294 8.24337L17.3641 13.7014L17.7685 20.7416L11.1978 18.1815L4.62709 20.7416L5.03145 13.7014L0.56617 8.24337L7.38678 6.45239L11.1978 0.519043Z" fill="#FFA800"/>
<path d="M67.4278 0.519043L71.2388 6.45239L78.0594 8.24337L73.5941 13.7014L73.9985 20.7416L67.4278 18.1815L60.8571 20.7416L61.2614 13.7014L56.7962 8.24337L63.6168 6.45239L67.4278 0.519043Z" fill="#FFA800"/>
<path d="M39.4805 0.519043L43.2915 6.45239L50.1121 8.24337L45.6468 13.7014L46.0512 20.7416L39.4805 18.1815L32.9098 20.7416L33.3142 13.7014L28.8489 8.24337L35.6695 6.45239L39.4805 0.519043Z" fill="#FFA800"/>
<path d="M123.321 0.519043L127.132 6.45239L133.953 8.24337L129.488 13.7014L129.892 20.7416L123.321 18.1815L116.751 20.7416L117.155 13.7014L112.69 8.24337L119.51 6.45239L123.321 0.519043Z" fill="#FFA800"/>
<path d="M95.7105 0.519043L99.5215 6.45239L106.342 8.24337L101.877 13.7014L102.281 20.7416L95.7105 18.1815L89.1398 20.7416L89.5441 13.7014L85.0789 8.24337L91.8995 6.45239L95.7105 0.519043Z" fill="#FFA800"/>
</svg>
