<svg width="33" height="34" viewBox="0 0 33 34" fill="none" xmlns="http://www.w3.org/2000/svg">
<path d="M21.4254 13.6356L18.0825 16.9785L21.4254 20.3213C21.8219 20.7178 21.8219 21.3607 21.4254 21.7573C21.2278 21.9549 20.9679 22.055 20.7081 22.055C20.4482 22.055 20.1883 21.9562 19.9907 21.7573L16.6479 18.4144L13.3051 21.7573C13.1075 21.9549 12.8476 22.055 12.5877 22.055C12.3279 22.055 12.068 21.9562 11.8704 21.7573C11.4739 21.3607 11.4739 20.7178 11.8704 20.3213L15.2133 16.9785L11.8704 13.6356C11.4739 13.2391 11.4739 12.5962 11.8704 12.1997C12.267 11.8031 12.9099 11.8031 13.3064 12.1997L16.6492 15.5426L19.9921 12.1997C20.3887 11.8031 21.0315 11.8031 21.428 12.1997C21.8246 12.5962 21.8219 13.2391 21.4254 13.6356ZM29.8434 12.9183V21.0386C29.8434 26.0759 25.7454 30.174 20.7081 30.174H12.5877C7.55045 30.174 3.45239 26.0759 3.45239 21.0386V12.9183C3.45239 7.88101 7.55045 3.78296 12.5877 3.78296H20.7081C25.7454 3.78296 29.8434 7.88101 29.8434 12.9183ZM27.8133 12.9183C27.8133 9.00026 24.6261 5.81304 20.7081 5.81304H12.5877C8.6697 5.81304 5.48247 9.00026 5.48247 12.9183V21.0386C5.48247 24.9567 8.6697 28.1439 12.5877 28.1439H20.7081C24.6261 28.1439 27.8133 24.9567 27.8133 21.0386V12.9183Z" fill="#41416E"/>
</svg>
