<svg width="34" height="33" viewBox="0 0 34 33" fill="none" xmlns="http://www.w3.org/2000/svg">
<path d="M3.37646 6.77947C3.37646 6.03105 3.98278 5.42609 4.72985 5.42609H22.3239C23.0709 5.42609 23.6773 6.03105 23.6773 6.77947C23.6773 7.5279 23.0709 8.13286 22.3239 8.13286H4.72985C3.98278 8.13286 3.37646 7.5279 3.37646 6.77947ZM29.0908 14.8998H4.72985C3.98278 14.8998 3.37646 15.5048 3.37646 16.2532C3.37646 17.0016 3.98278 17.6066 4.72985 17.6066H29.0908C29.8379 17.6066 30.4442 17.0016 30.4442 16.2532C30.4442 15.5048 29.8379 14.8998 29.0908 14.8998ZM16.9103 24.3735H4.72985C3.98278 24.3735 3.37646 24.9785 3.37646 25.7269C3.37646 26.4753 3.98278 27.0803 4.72985 27.0803H16.9103C17.6574 27.0803 18.2637 26.4753 18.2637 25.7269C18.2637 24.9785 17.6574 24.3735 16.9103 24.3735Z" fill="#41416E"/>
</svg>
